<svg id="draw.id" overflow="visible" v:layers="{&quot;default&quot;:{&quot;name&quot;:&quot;Default&quot;,&quot;print&quot;:1,&quot;display&quot;:1,&quot;publish&quot;:1}}" v:ver="2" x="500.5" xmlns="http://www.w3.org/2000/svg" xmlns:v="http://vecta.io" xmlns:xlink="http://www.w3.org/1999/xlink" y="500.5" v:stencils="{&quot;0&quot;:{&quot;id&quot;:&quot;stencil_65&quot;,&quot;expand&quot;:0,&quot;show_name&quot;:1}}"><style xmlns="http://www.w3.org/1999/xhtml"><![CDATA[#draw\.id{stroke:#000;stroke-linecap:round;stroke-linejoin:round;fill:#fff;fill-rule:evenodd;font-family:Roboto;font-size:14px;text-anchor:middle}#draw\.id text{paint-order:stroke;white-space:pre}#draw\.id .Text\.cls{stroke:none}]]></style><defs><style type="text/css">@import url('https://fonts.googleapis.com/css?family=Roboto+Condensed:400,400i,700,700i');@import url('https://fonts.googleapis.com/css?family=Roboto:400,400i,700,700i');@import url('https://fonts.googleapis.com/css?family=Cousine:400,400i,700,700i');@import url('https://fonts.googleapis.com/css?family=Anonymous+Pro:400,400i,700,700i');@import url('https://fonts.googleapis.com/css?family=Lato:400,400i,700,700i');@import url('https://fonts.googleapis.com/css?family=Open+Sans:400,400i,700,700i');</style></defs><title xmlns="http://www.w3.org/1999/xhtml">Untitled drawing</title><desc xmlns="http://www.w3.org/1999/xhtml"></desc><svg height="324" id="khpwqc5o5" overflow="visible" v:setup="{&quot;paper&quot;:&quot;CUSTOM&quot;,&quot;unit&quot;:&quot;px&quot;,&quot;scale&quot;:{&quot;from&quot;:1,&quot;to&quot;:1},&quot;width&quot;:99,&quot;height&quot;:81}" viewBox="0 0 99 81" width="396"><g id="kmt5okklj1" class="Group.cls" transform="translate(30 47.5)" v:abox="{&quot;x&quot;:30,&quot;y&quot;:47.5,&quot;width&quot;:32.5,&quot;height&quot;:27.5}"><g class="Prim.cls"><g id="kmt5okisgf" transform="translate(1.8091624139464315 0)" class=""><path d="M 0 13.74999738654319 C 0 6.132497318593312 5.93084986224668 0 13.29787941212023 0 C 20.664931077845072 0 26.595800844357914 6.132497318593312 26.595800844357914 13.74999738654319 C 26.595800844357914 21.367492227579447 20.664931077845072 27.5 13.29787941212023 27.5 C 5.93084986224668 27.5 0 21.367492227579447 0 13.74999738654319 Z" stroke="none" stroke-linejoin="miter" stroke-linecap="butt" fill="#0b3d91" fill-rule="nonzero" stroke-width="0.9999999801320885"/></g><g id="kmt5okiugg" transform="translate(14.17282782689708 2.486918460717654)" class=""><path d="M 0 0.1541521366387448 C 0 0.06874959491419402 0.06648404028547648 0 0.14906336526293573 0 C 0.23166291044729437 0 0.29814695073277087 0.06874959491419402 0.29814695073277087 0.1541521366387448 C 0.29814695073277087 0.2395494514496703 0.23166291044729437 0.3082990463638643 0.14906336526293573 0.3082990463638643 C 0.06648404028547648 0.3082990463638643 0 0.2395494514496703 0 0.1541521366387448 Z" stroke="none" stroke-linejoin="miter" stroke-linecap="butt" fill-rule="nonzero" stroke-width="0.9999999801320885"/></g><g id="kmt5okiugh" transform="translate(15.703376167946004 2.692451158293563)" class=""><path d="M 0 0.15414690972511952 C 0 0.06874959491419404 0.06648404028547648 0 0.14906336526293573 0 C 0.23166291044729437 0 0.29814695073277087 0.06874959491419404 0.29814695073277087 0.15414690972511952 C 0.29814695073277087 0.23954422453604493 0.23166291044729437 0.30829381945023904 0.14906336526293573 0.30829381945023904 C 0.06648404028547648 0.30829381945023904 0 0.23954422453604493 0 0.15414690972511952 Z" stroke="none" stroke-linejoin="miter" stroke-linecap="butt" fill-rule="nonzero" stroke-width="0.9999999801320885"/></g><g id="kmt5okivgi" transform="translate(17.71097985037426 5.4876686653750815)" class=""><path d="M 0 0.15414690972511952 C 0 0.06874959491419404 0.06648404028547648 0 0.14908358546983524 0 C 0.23166291044729437 0 0.29814695073277087 0.06874959491419404 0.29814695073277087 0.15414690972511952 C 0.29814695073277087 0.23954422453604493 0.23166291044729437 0.30829381945023904 0.14908358546983524 0.30829381945023904 C 0.06648404028547648 0.30829381945023904 0 0.23954422453604493 0 0.15414690972511952 Z" stroke="none" stroke-linejoin="miter" stroke-linecap="butt" fill-rule="nonzero" stroke-width="0.9999999801320885"/></g><g id="kmt5okivgj" transform="translate(6.6989749239736005 19.874811142107244)" class=""><path d="M 0 0.1541521366387448 C 0 0.06874436800056871 0.06648404028547648 0 0.14906336526293573 0 C 0.23166291044729437 0 0.29814695073277087 0.06874436800056871 0.29814695073277087 0.1541521366387448 C 0.29814695073277087 0.23953899762241962 0.23166291044729437 0.30829381945023904 0.14906336526293573 0.30829381945023904 C 0.06648404028547648 0.30829381945023904 0 0.23953899762241962 0 0.1541521366387448 Z" stroke="none" stroke-linejoin="miter" stroke-linecap="butt" fill-rule="nonzero" stroke-width="0.9999999801320885"/></g><g id="kmt5okiwgk" transform="translate(7.0865760700296505 21.107996873735452)" class=""><path d="M 0 0.15414168281149415 C 0 0.06874436800056871 0.06648404028547648 0 0.14908358546983524 0 C 0.23166291044729437 0 0.29814695073277087 0.06874436800056871 0.29814695073277087 0.15414168281149415 C 0.29814695073277087 0.23953899762241962 0.23166291044729437 0.30829381945023904 0.14908358546983524 0.30829381945023904 C 0.06648404028547648 0.30829381945023904 0 0.23953899762241962 0 0.15414168281149415 Z" stroke="none" stroke-linejoin="miter" stroke-linecap="butt" fill-rule="nonzero" stroke-width="0.9999999801320885"/></g><g id="kmt5okixgl" transform="translate(5.275431917836704 20.098491683790364)" class=""><path d="M 0 0.11544161432942218 C 0 0.05148509920967166 0.049782149386509426 0 0.11163576229200589 0 C 0.1734893751975023 0 0.22327152458401178 0.05148509920967166 0.22327152458401178 0.11544161432942218 C 0.22327152458401178 0.1793981294491727 0.1734893751975023 0.23088322865884436 0.11163576229200589 0.23088322865884436 C 0.049782149386509426 0.23088322865884436 0 0.1793981294491727 0 0.11544161432942218 Z" stroke="none" stroke-linejoin="miter" stroke-linecap="butt" fill-rule="nonzero" stroke-width="0.9999999801320885"/></g><g id="kmt5okixgm" transform="translate(11.33765151648708 22.52067481925808)" class=""><path d="M 0 0.1157865906286951 C 0 0.05164190661843208 0.049943911041705244 0 0.111979505809297 0 C 0.17401510057688876 0 0.223959011618594 0.05164190661843208 0.223959011618594 0.1157865906286951 C 0.223959011618594 0.17992082081170738 0.17401510057688876 0.23156272743013945 0.111979505809297 0.23156272743013945 C 0.049943911041705244 0.23156272743013945 0 0.17992082081170738 0 0.1157865906286951 Z" stroke="none" stroke-linejoin="miter" stroke-linecap="butt" fill-rule="nonzero" stroke-width="0.9999999801320885"/></g><g id="kmt5okixgn" transform="translate(20.846609478866508 20.478728742379886)" class=""><path d="M 0 0.11544161432942218 C 0 0.05148509920967166 0.049802369593408904 0 0.11165598249890532 0 C 0.17350959540440183 0 0.2232917447909113 0.05148509920967166 0.2232917447909113 0.11544161432942218 C 0.2232917447909113 0.17938767562192193 0.17350959540440183 0.23088322865884436 0.11165598249890532 0.23088322865884436 C 0.049802369593408904 0.23088322865884436 0 0.17938767562192193 0 0.11544161432942218 Z" stroke="none" stroke-linejoin="miter" stroke-linecap="butt" fill-rule="nonzero" stroke-width="0.9999999801320885"/></g><g id="kmt5okiygo" transform="translate(23.609559210231566 17.374872439548845)" class=""><path d="M 0 0.11577613680144437 C 0 0.05164190661843208 0.049943911041705265 0 0.11197950580929708 0 C 0.17401510057688882 0 0.2239387914116946 0.05164190661843208 0.2239387914116946 0.11577613680144437 C 0.2239387914116946 0.17992082081170738 0.17401510057688882 0.23156272743013945 0.11197950580929708 0.23156272743013945 C 0.049943911041705265 0.23156272743013945 0 0.17992082081170738 0 0.11577613680144437 Z" stroke="none" stroke-linejoin="miter" stroke-linecap="butt" fill-rule="nonzero" stroke-width="0.9999999801320885"/></g><g id="kmt5okiygp" transform="translate(10.06584094292385 6.4279695189205714)" class=""><path d="M 0 0.11544161432942218 C 0 0.05148509920967166 0.049802369593408904 0 0.11165598249890532 0 C 0.1734893751975024 0 0.2232917447909113 0.05148509920967166 0.2232917447909113 0.11544161432942218 C 0.2232917447909113 0.1793981294491727 0.1734893751975024 0.23088322865884436 0.11165598249890532 0.23088322865884436 C 0.049802369593408904 0.23088322865884436 0 0.1793981294491727 0 0.11544161432942218 Z" stroke="none" stroke-linejoin="miter" stroke-linecap="butt" fill-rule="nonzero" stroke-width="0.9999999801320885"/></g><g id="kmt5okizgq" transform="translate(13.10706116163951 4.118489095042587)" class=""><path d="M 0 0.11544161432942218 C 0 0.05148509920967166 0.049802369593408904 0 0.11165598249890532 0 C 0.17350959540440183 0 0.2232917447909113 0.05148509920967166 0.2232917447909113 0.11544161432942218 C 0.2232917447909113 0.17939290253554738 0.17350959540440183 0.23088322865884436 0.11165598249890532 0.23088322865884436 C 0.049802369593408904 0.23088322865884436 0 0.17939290253554738 0 0.11544161432942218 Z" stroke="none" stroke-linejoin="miter" stroke-linecap="butt" fill-rule="nonzero" stroke-width="0.9999999801320885"/></g><g id="kmt5okizgr" transform="translate(12.776764081936573 3.892404173091811)" class=""><path d="M 0 0.11544161432942218 C 0 0.05149032612329701 0.049802369593408904 0 0.11165598249890532 0 C 0.17350959540440183 0 0.2232917447909113 0.05149032612329701 0.2232917447909113 0.11544161432942218 C 0.2232917447909113 0.1793981294491727 0.17350959540440183 0.23088322865884436 0.11165598249890532 0.23088322865884436 C 0.049802369593408904 0.23088322865884436 0 0.1793981294491727 0 0.11544161432942218 Z" stroke="none" stroke-linejoin="miter" stroke-linecap="butt" fill-rule="nonzero" stroke-width="0.9999999801320885"/></g><g id="kmt5okj0gs" transform="translate(12.4786171312038 3.66632447805466)" class=""><path d="M 0 0.11543638741579683 C 0 0.05148509920967165 0.049782149386509406 0 0.11163576229200581 0 C 0.1734893751975024 0 0.2232917447909113 0.05148509920967165 0.2232917447909113 0.11543638741579683 C 0.2232917447909113 0.17939290253554735 0.1734893751975024 0.23087800174521894 0.11163576229200581 0.23087800174521894 C 0.049782149386509406 0.23087800174521894 0 0.17939290253554735 0 0.11543638741579683 Z" stroke="none" stroke-linejoin="miter" stroke-linecap="butt" fill-rule="nonzero" stroke-width="0.9999999801320885"/></g><g id="kmt5okj0gt" transform="translate(10.54289628430318 7.024349909745457)" class=""><path d="M 0 0.11544161432942218 C 0 0.05148509920967166 0.049802369593408904 0 0.11165598249890532 0 C 0.1734893751975024 0 0.2232917447909113 0.05148509920967166 0.2232917447909113 0.11544161432942218 C 0.2232917447909113 0.1793981294491727 0.1734893751975024 0.23088322865884436 0.11165598249890532 0.23088322865884436 C 0.049802369593408904 0.23088322865884436 0 0.1793981294491727 0 0.11544161432942218 Z" stroke="none" stroke-linejoin="miter" stroke-linecap="butt" fill-rule="nonzero" stroke-width="0.9999999801320885"/></g><g id="kmt5okj3gu" transform="translate(15.022582021847551 1.0149777685108294)" class=""><path d="M 0 0.11544161432942213 C 0 0.05148509920967165 0.049782149386509426 0 0.11163576229200589 0 C 0.1734893751975023 0 0.22327152458401178 0.05148509920967165 0.22327152458401178 0.11544161432942213 C 0.22327152458401178 0.17939290253554735 0.1734893751975023 0.23087800174521894 0.11163576229200589 0.23087800174521894 C 0.049782149386509426 0.23087800174521894 0 0.17939290253554735 0 0.11544161432942213 Z" stroke="none" stroke-linejoin="miter" stroke-linecap="butt" fill-rule="nonzero" stroke-width="0.9999999801320885"/></g><g id="kmt5okj3gv" transform="translate(15.758354910505686 4.344574016993364)" class=""><path d="M 0 0.11544161432942213 C 0 0.05148509920967165 0.049802369593408904 0 0.11165598249890532 0 C 0.17350959540440183 0 0.2232917447909113 0.05148509920967165 0.2232917447909113 0.11544161432942213 C 0.2232917447909113 0.17939290253554735 0.17350959540440183 0.23087800174521894 0.11165598249890532 0.23087800174521894 C 0.049802369593408904 0.23087800174521894 0 0.17939290253554735 0 0.11544161432942213 Z" stroke="none" stroke-linejoin="miter" stroke-linecap="butt" fill-rule="nonzero" stroke-width="0.9999999801320885"/></g><g id="kmt5okj4gw" transform="translate(14.597856575924062 3.6944139118772776)" class=""><path d="M 0 0.11543638741579683 C 0 0.05148509920967165 0.049802369593408904 0 0.11165598249890532 0 C 0.17350959540440183 0 0.2232917447909113 0.05148509920967165 0.2232917447909113 0.11543638741579683 C 0.2232917447909113 0.17939290253554735 0.17350959540440183 0.23087800174521894 0.11165598249890532 0.23087800174521894 C 0.049802369593408904 0.23087800174521894 0 0.17939290253554735 0 0.11543638741579683 Z" stroke="none" stroke-linejoin="miter" stroke-linecap="butt" fill-rule="nonzero" stroke-width="0.9999999801320885"/></g><g id="kmt5okj4gx" transform="translate(12.610129356877993 4.578535897777537)" class=""><path d="M 0 0.11544161432942213 C 0 0.05148509920967165 0.049802369593408904 0 0.11165598249890532 0 C 0.17350959540440183 0 0.2232917447909113 0.05148509920967165 0.2232917447909113 0.11544161432942213 C 0.2232917447909113 0.17939290253554735 0.17350959540440183 0.23087800174521894 0.11165598249890532 0.23087800174521894 C 0.049802369593408904 0.23087800174521894 0 0.17939290253554735 0 0.11544161432942213 Z" stroke="none" stroke-linejoin="miter" stroke-linecap="butt" fill-rule="nonzero" stroke-width="0.9999999801320885"/></g><g id="kmt5okj5gy" transform="translate(21.376014935908575 23.528465581534057)" class=""><path d="M 0 0.11543116050217148 C 0 0.05147464538242099 0.049782149386509406 0 0.11163576229200581 0 C 0.1734893751975024 0 0.2232917447909113 0.05147464538242099 0.2232917447909113 0.11543116050217148 C 0.2232917447909113 0.179387675621922 0.1734893751975024 0.23087277483159366 0.11163576229200581 0.23087277483159366 C 0.049782149386509406 0.23087277483159366 0 0.179387675621922 0 0.11543116050217148 Z" stroke="none" stroke-linejoin="miter" stroke-linecap="butt" fill-rule="nonzero" stroke-width="0.9999999801320885"/></g><g id="kmt5okj5gz" transform="translate(6.547242491399934 20.694192575843953)" class=""><path d="M 0 0.11577613680144437 C 0 0.05164190661843208 0.049943911041705265 0 0.11195928560239754 0 C 0.17399488036998945 0 0.2239387914116946 0.05164190661843208 0.2239387914116946 0.11577613680144437 C 0.2239387914116946 0.17992082081170738 0.17399488036998945 0.23156272743013945 0.11195928560239754 0.23156272743013945 C 0.049943911041705265 0.23156272743013945 0 0.17992082081170738 0 0.11577613680144437 Z" stroke="none" stroke-linejoin="miter" stroke-linecap="butt" fill-rule="nonzero" stroke-width="0.9999999801320885"/></g><g id="kmt5okj5h0" transform="translate(14.319242345056185 22.184291565985234)" class=""><path d="M 0 0.11577613680144437 C 0 0.05164190661843208 0.049943911041705244 0 0.111979505809297 0 C 0.17401510057688876 0 0.223959011618594 0.05164190661843208 0.223959011618594 0.11577613680144437 C 0.223959011618594 0.17992082081170738 0.17401510057688876 0.23156272743013945 0.111979505809297 0.23156272743013945 C 0.049943911041705244 0.23156272743013945 0 0.17992082081170738 0 0.11577613680144437 Z" stroke="none" stroke-linejoin="miter" stroke-linecap="butt" fill-rule="nonzero" stroke-width="0.9999999801320885"/></g><g id="kmt5okj6h1" transform="translate(8.860292619251668 20.601707566157042)" class=""><path d="M 0 0.11577613680144443 C 0 0.05163145279118139 0.049943911041705265 0 0.11197950580929708 0 C 0.17401510057688882 0 0.2239387914116946 0.05163145279118139 0.2239387914116946 0.11577613680144443 C 0.2239387914116946 0.1799208208117074 0.17401510057688882 0.23155227360288885 0.11197950580929708 0.23155227360288885 C 0.049943911041705265 0.23155227360288885 0 0.1799208208117074 0 0.11577613680144443 Z" stroke="none" stroke-linejoin="miter" stroke-linecap="butt" fill-rule="nonzero" stroke-width="0.9999999801320885"/></g><g id="kmt5okj6h2" transform="translate(9.826979638820344 22.233278200481983)" class=""><path d="M 0 0.11577613680144443 C 0 0.05163145279118139 0.049943911041705244 0 0.111979505809297 0 C 0.17401510057688876 0 0.223959011618594 0.05163145279118139 0.223959011618594 0.11577613680144443 C 0.223959011618594 0.1799208208117074 0.17401510057688876 0.23155227360288885 0.111979505809297 0.23155227360288885 C 0.049943911041705244 0.23155227360288885 0 0.1799208208117074 0 0.11577613680144443 Z" stroke="none" stroke-linejoin="miter" stroke-linecap="butt" fill-rule="nonzero" stroke-width="0.9999999801320885"/></g><g id="kmt5okj7h3" transform="translate(16.943380356056355 21.205959688901704)" class=""><path d="M 0 0.11544161432942218 C 0 0.05148509920967166 0.049802369593408904 0 0.11163576229200581 0 C 0.1734893751975024 0 0.2232917447909113 0.05148509920967166 0.2232917447909113 0.11544161432942218 C 0.2232917447909113 0.1793981294491727 0.1734893751975024 0.23088322865884436 0.11163576229200581 0.23088322865884436 C 0.049802369593408904 0.23088322865884436 0 0.1793981294491727 0 0.11544161432942218 Z" stroke="none" stroke-linejoin="miter" stroke-linecap="butt" fill-rule="nonzero" stroke-width="0.9999999801320885"/></g><g id="kmt5okj7h4" transform="translate(20.866485942248687 18.916696966926573)" class=""><path d="M 0 0.11543116050217148 C 0 0.051485099209671654 0.049802369593408904 0 0.11165598249890532 0 C 0.17350959540440183 0 0.2232917447909113 0.051485099209671654 0.2232917447909113 0.11543116050217148 C 0.2232917447909113 0.179387675621922 0.17350959540440183 0.23087277483159366 0.11165598249890532 0.23087277483159366 C 0.049802369593408904 0.23087277483159366 0 0.179387675621922 0 0.11543116050217148 Z" stroke="none" stroke-linejoin="miter" stroke-linecap="butt" fill-rule="nonzero" stroke-width="0.9999999801320885"/></g><g id="kmt5okj8h5" transform="translate(23.84079749633397 20.321837703001453)" class=""><path d="M 0 0.11544161432942218 C 0 0.05148509920967166 0.049782149386509406 0 0.11163576229200581 0 C 0.1734893751975024 0 0.2232917447909113 0.05148509920967166 0.2232917447909113 0.11544161432942218 C 0.2232917447909113 0.1793981294491727 0.1734893751975024 0.23088322865884436 0.11163576229200581 0.23088322865884436 C 0.049782149386509406 0.23088322865884436 0 0.1793981294491727 0 0.11544161432942218 Z" stroke="none" stroke-linejoin="miter" stroke-linecap="butt" fill-rule="nonzero" stroke-width="0.9999999801320885"/></g><g id="kmt5okj8h6" transform="translate(24.854537569239206 20.992555259406025)" class=""><path d="M 0 0.11544161432942218 C 0 0.05148509920967166 0.049782149386509406 0 0.11163576229200581 0 C 0.1734893751975024 0 0.2232917447909113 0.05148509920967166 0.2232917447909113 0.11544161432942218 C 0.2232917447909113 0.17938767562192193 0.1734893751975024 0.23088322865884436 0.11163576229200581 0.23088322865884436 C 0.049782149386509406 0.23088322865884436 0 0.17938767562192193 0 0.11544161432942218 Z" stroke="none" stroke-linejoin="miter" stroke-linecap="butt" fill-rule="nonzero" stroke-width="0.9999999801320885"/></g><g id="kmt5okj8h7" transform="translate(25.02117229429778 19.16333411325221)" class=""><path d="M 0 0.11544161432942215 C 0 0.051485099209671654 0.049802369593408904 0 0.11163576229200581 0 C 0.17350959540440183 0 0.2232917447909113 0.051485099209671654 0.2232917447909113 0.11544161432942215 C 0.2232917447909113 0.179387675621922 0.17350959540440183 0.23087277483159366 0.11163576229200581 0.23087277483159366 C 0.049802369593408904 0.23087277483159366 0 0.179387675621922 0 0.11544161432942215 Z" stroke="none" stroke-linejoin="miter" stroke-linecap="butt" fill-rule="nonzero" stroke-width="0.9999999801320885"/></g><g id="kmt5okj9h8" transform="translate(10.232152144672039 16.573649303746596)" class=""><path d="M 0 0.11544161432942215 C 0 0.051485099209671654 0.049782149386509406 0 0.11163576229200581 0 C 0.1734893751975024 0 0.2232917447909113 0.051485099209671654 0.2232917447909113 0.11544161432942215 C 0.2232917447909113 0.179387675621922 0.1734893751975024 0.23087277483159366 0.11163576229200581 0.23087277483159366 C 0.049782149386509406 0.23087277483159366 0 0.179387675621922 0 0.11544161432942215 Z" stroke="none" stroke-linejoin="miter" stroke-linecap="butt" fill-rule="nonzero" stroke-width="0.9999999801320885"/></g><g id="kmt5okj9h9" transform="translate(10.23712631556931 19.186280264067484)" class=""><path d="M 0 0.1541521366387448 C 0 0.06875482182781938 0.06648404028547648 0 0.14906336526293573 0 C 0.23166291044729437 0 0.29814695073277087 0.06875482182781938 0.29814695073277087 0.1541521366387448 C 0.29814695073277087 0.23954945144967038 0.23166291044729437 0.30829381945023904 0.14906336526293573 0.30829381945023904 C 0.06648404028547648 0.30829381945023904 0 0.23954945144967038 0 0.1541521366387448 Z" stroke="none" stroke-linejoin="miter" stroke-linecap="butt" fill-rule="nonzero" stroke-width="0.9999999801320885"/></g><g id="kmt5okjaha" transform="translate(11.131587387974523 21.138825210297753)" class=""><path d="M 0 0.15414168281149415 C 0 0.06874436800056871 0.0665042604923759 0 0.1490835854698351 0 C 0.23168313065419371 0 0.2981671709396702 0.06874436800056871 0.2981671709396702 0.15414168281149415 C 0.2981671709396702 0.23953899762241962 0.23168313065419371 0.30829381945023904 0.1490835854698351 0.30829381945023904 C 0.0665042604923759 0.30829381945023904 0 0.23953899762241962 0 0.15414168281149415 Z" stroke="none" stroke-linejoin="miter" stroke-linecap="butt" fill-rule="nonzero" stroke-width="0.9999999801320885"/></g><g id="kmt5okjahb" transform="translate(21.845447259286807 19.10407136656802)" class=""><path d="M 0 0.1541521366387448 C 0 0.06874436800056871 0.06648404028547643 0 0.1490835854698351 0 C 0.2316629104472943 0 0.2981671709396702 0.06874436800056871 0.2981671709396702 0.1541521366387448 C 0.2981671709396702 0.23953899762241962 0.2316629104472943 0.30829381945023904 0.1490835854698351 0.30829381945023904 C 0.06648404028547643 0.30829381945023904 0 0.23953899762241962 0 0.1541521366387448 Z" stroke="none" stroke-linejoin="miter" stroke-linecap="butt" fill-rule="nonzero" stroke-width="0.9999999801320885"/></g><g id="kmt5okjahc" transform="translate(25.701642917085838 18.877986444617246)" class=""><path d="M 0 0.15414168281149415 C 0 0.06875482182781938 0.06648404028547643 0 0.14906336526293562 0 C 0.23168313065419371 0 0.2981671709396702 0.06875482182781938 0.2981671709396702 0.15414168281149415 C 0.2981671709396702 0.23954945144967038 0.23168313065419371 0.30829381945023904 0.14906336526293562 0.30829381945023904 C 0.06648404028547643 0.30829381945023904 0 0.23954945144967038 0 0.15414168281149415 Z" stroke="none" stroke-linejoin="miter" stroke-linecap="butt" fill-rule="nonzero" stroke-width="0.9999999801320885"/></g><g id="kmt5okjbhd" transform="translate(23.793421551568503 18.035313883765987)" class=""><path d="M 0 0.15414168281149415 C 0 0.06874436800056871 0.06648404028547643 0 0.1490835854698351 0 C 0.2316629104472943 0 0.2981671709396702 0.06874436800056871 0.2981671709396702 0.15414168281149415 C 0.2981671709396702 0.23953899762241962 0.2316629104472943 0.30829381945023904 0.1490835854698351 0.30829381945023904 C 0.06648404028547643 0.30829381945023904 0 0.23953899762241962 0 0.15414168281149415 Z" stroke="none" stroke-linejoin="miter" stroke-linecap="butt" fill-rule="nonzero" stroke-width="0.9999999801320885"/></g><g id="kmt5okjbhe" transform="translate(21.845447259286807 18.11752278126545)" class=""><path d="M 0 0.1541521366387448 C 0 0.06875482182781938 0.06648404028547643 0 0.1490835854698351 0 C 0.2316629104472943 0 0.2981671709396702 0.06875482182781938 0.2981671709396702 0.1541521366387448 C 0.2981671709396702 0.23954945144967038 0.2316629104472943 0.30829381945023904 0.1490835854698351 0.30829381945023904 C 0.06648404028547643 0.30829381945023904 0 0.23954945144967038 0 0.1541521366387448 Z" stroke="none" stroke-linejoin="miter" stroke-linecap="butt" fill-rule="nonzero" stroke-width="0.9999999801320885"/></g><g id="kmt5okjchf" transform="translate(17.273677435759303 1.9631608078033456)" class=""><path d="M 0.7026521897567843 0.5813059719293834 L 1.0733694630517738 0.5446548535884475 L 0.703319456584467 0.5230729272293881 C 0.6917332780310671 0.4490859648625959 0.6344089914710536 0.3911926695482484 0.5621824124261259 0.3816012830457359 L 0.5267363897313447 0 L 0.5055456129006942 0.3846851620846909 C 0.43861672806342933 0.40009933036584033 0.38727762274566 0.45798739876656247 0.3789873379168749 0.5299254109922187 L 0 0.5655520542625863 L 0.3816361850207064 0.5867890043223729 C 0.39554768736754564 0.6528990078557663 0.447230536202606 0.704624545092204 0.512157620556823 0.7169600612480238 L 0.5466128531135295 1.110206907851034 L 0.5668330600130053 0.7176447869329442 C 0.6353997816091278 0.7056542470763975 0.6897314775480194 0.6511898071002774 0.7026521897567843 0.5813059719293834 Z" stroke="none" stroke-linejoin="miter" stroke-linecap="butt" fill-rule="nonzero" stroke-width="0.9999999801320885"/></g><g id="kmt5okjchg" transform="translate(11.016979255268295 6.23066398339096)" class=""><path d="M 0.7026521897567843 0.5813059719293834 L 1.0733694630517738 0.5446548535884475 L 0.703319456584467 0.5230677003157627 C 0.692056801341459 0.44907551103534527 0.6344089914710536 0.3911926695482484 0.5621824124261259 0.3815960561321105 L 0.5267363897313447 0 L 0.5058691362110856 0.3846799351710656 C 0.43861672806342933 0.40009933036584033 0.38727762274566 0.4579821718529373 0.3789873379168749 0.5299254109922187 L 0 0.5655520542625863 L 0.3816361850207064 0.5867837774087474 C 0.39554768736754564 0.6528937809421408 0.447230536202606 0.7046193181785786 0.512157620556823 0.7169548343343984 L 0.5466128531135295 1.110206907851034 L 0.5671565833233971 0.7176447869329442 C 0.635743525126419 0.7059887695484196 0.6900550008584106 0.6511898071002774 0.7026521897567843 0.5813059719293834 Z" stroke="none" stroke-linejoin="miter" stroke-linecap="butt" fill-rule="nonzero" stroke-width="0.9999999801320885"/></g><g id="kmt5okjdhh" transform="translate(24.87673935641482 17.513605180992815)" class=""><path d="M 0.7023286664463926 0.5813059719293834 L 1.0730459397413818 0.5446548535884475 L 0.7029757130671754 0.5230781541430136 C 0.691733278031067 0.4490859648625959 0.634065247953762 0.3911926695482484 0.5618386689088345 0.3816065099593613 L 0.5264128664209529 0 L 0.505545612900694 0.3846799351710656 C 0.4386167280634291 0.40009933036584033 0.3872574025387605 0.45799262568018784 0.3789671177099755 0.5299254109922187 L 0 0.5655520542625863 L 0.38163618502070623 0.5867942312359982 C 0.3955476873675455 0.6529042347693917 0.4472305362026057 0.7046297720058293 0.5121778407637217 0.716965288161649 L 0.546633073320429 1.110206907851034 L 0.567176803530296 0.7176447869329442 C 0.6350762582987359 0.7059992233756703 0.6893877340307276 0.6515347833995507 0.7023286664463926 0.5813059719293834 Z" stroke="none" stroke-linejoin="miter" stroke-linecap="butt" fill-rule="nonzero" stroke-width="0.9999999801320885"/></g><g id="kmt5okjdhi" transform="translate(9.764701401569958 23.413358489676657)" class=""><path d="M 0.7026724099636835 0.5809714494573608 L 1.0733694630517738 0.5443203311164251 L 0.703319456584467 0.5227331778437403 C 0.6917332780310671 0.4487409885633228 0.6344089914710536 0.390858147076226 0.5622026326330253 0.3812615336600884 L 0.5267566099382445 0 L 0.5058691362110856 0.38434541269904315 C 0.43863694827032884 0.3997648078938181 0.38727762274566 0.4576476493809148 0.3789873379168749 0.5295804346929454 L 0 0.565207077963313 L 0.3816361850207064 0.5864492549367248 C 0.39556790757444527 0.6525592584701183 0.447230536202606 0.7046297720058289 0.5121778407637222 0.7166203118623756 L 0.5466330733204291 1.109872385379011 L 0.5671565833233971 0.7173102644609217 C 0.6354200018160274 0.7056542470763969 0.6900752210653105 0.6508448308010045 0.7026724099636835 0.5809714494573608 Z" stroke="none" stroke-linejoin="miter" stroke-linecap="butt" fill-rule="nonzero" stroke-width="0.9999999801320885"/></g><g id="kmt5okjehj" transform="translate(23.699013405554858 20.535587108796403)" class=""><path d="M 0.7023286664463928 0.581305971929383 L 1.0730257195344823 0.5446548535884472 L 0.7029757130671758 0.5230781541430132 C 0.6917130578241678 0.4490859648625958 0.6340854681606617 0.3911926695482482 0.5618588891157341 0.38160650995936113 L 0.526412866420953 0 L 0.5055456129006941 0.38434541269904315 C 0.43861672806342933 0.3997648078938181 0.3872574025387606 0.4576476493809148 0.37898733791687494 0.529590888520196 L 0 0.565207077963313 L 0.3816361850207063 0.5864492549367248 C 0.39554768736754575 0.6525592584701183 0.4472305362026058 0.7042847957065559 0.5121576205568227 0.7166203118623756 L 0.5466128531135294 1.109872385379011 L 0.5671565833233969 0.7173102644609217 C 0.6350762582987359 0.7059992233756699 0.6897314775480193 0.6511898071002773 0.7023286664463928 0.581305971929383 Z" stroke="none" stroke-linejoin="miter" stroke-linecap="butt" fill-rule="nonzero" stroke-width="0.9999999801320885"/></g><g id="kmt5okjehk" transform="translate(0 1.1506266309158448)" class=""><path d="M 18.260585294108907 9.305746126714459 C 16.714467393747388 9.927132072323005 15.20644436318449 10.48171806179961 13.933966522793575 10.893462955722722 C 11.348267125109304 11.730657711094617 4.273601546795277 13.996984736081728 0 16.853848462460594 L 0.35777634087932497 16.99772448691191 C 2.961714207216553 15.476797160208323 4.654267161884808 14.998942262751823 6.281205229223533 14.469696350530896 C 8.050291351065567 13.894213160380156 13.769313378011141 12.510304147451432 16.35899615645461 11.756698194776094 C 17.23392450899493 11.50217886270343 18.258583493625864 11.168879488469527 19.343882878748328 10.763302352624319 C 19.09145381581527 10.399164188000869 18.825093030328475 10.034001548306852 18.544820742494846 9.669528861211381 C 18.45107986330887 9.54656049126146 18.355984230260628 9.4252960951534 18.260585294108907 9.305746126714459 Z M 20.14957850662777 11.997847081795117 C 19.775221596090873 12.259213670716989 19.461503822282584 12.467830247331854 19.24185171473357 12.599370755627348 C 17.969717617859953 13.359834418979135 11.767674656618233 17.73763592588883 10.35670861917281 18.744736735566256 C 8.94576343381576 19.75183754524369 5.029614862559778 23.5747080863775 3.8767193257723647 24.68457001792927 L 3.8369663990079954 25.13639488553154 C 7.554026813131734 21.683474836972568 8.720146365231408 20.831895615303722 10.197696912115333 19.66962864774424 C 12.026412424103928 18.230910218540117 15.809390712719951 15.569282169895228 17.095112788630022 14.71633349685653 C 18.324177844807757 13.901060417229353 19.43266980724393 13.151217842364268 20.42754569087486 12.46509134459217 C 20.411308864734586 12.437001910769554 20.395072038594307 12.408912476946936 20.37883521245403 12.380478066825043 C 20.30395978630527 12.253390888938354 20.227446523397653 12.125969188579639 20.14957850662777 11.997847081795117 Z M 25.96005716126114 5.652436663586907 C 24.149216312171696 6.749973532810101 21.295174548724468 8.074619799054634 18.526278812768016 9.198521220604077 C 18.5925404307776 9.28245499959991 18.6584583052699 9.36705782353978 18.724052656451793 9.452350600078194 C 19.033482482634465 9.855199287010974 19.325340949021506 10.260776422856175 19.59997179913019 10.666698535000648 C 21.776536794173385 9.83772048784781 24.164785871484284 8.725119653556368 26.059742781275542 7.378551711567122 C 25.15699142404155 8.263018673766654 22.172428225058226 10.569415218605686 20.352670264726104 11.855005986241625 C 20.44641114391208 12.01292150069062 20.53719987289072 12.170837015139613 20.624975791041347 12.328073030817317 C 23.381960561371073 10.420406364974284 25.23718476460489 9.01629010396997 26.31815702545086 8.077358701794319 C 27.808952439735407 6.78251629704151 31.207969219537283 3.8845324411720394 32.5 0 C 30.233638329879156 2.9805377296682094 27.554218273215806 4.68610055327356 25.96005716126114 5.652436663586907 Z" stroke="none" stroke-linejoin="miter" stroke-linecap="butt" fill="#fc3d21" fill-rule="nonzero" stroke-width="0.9999999801320885"/></g><g id="kmt5okjfhl" transform="translate(8.384651214572056 4.6587783145206245)" class=""><path d="M 5.011296043040266 12.49583198485608 C 4.71810304299787 12.114235928723964 4.312607013835781 11.603148314437512 4.008151358550371 11.206812361881916 C 3.6009972724225285 10.676886950889694 3.2243352582990927 10.141483734418117 2.8791358861112437 9.606760016717828 C 2.7664891134742615 9.635873925611007 2.654186084354572 9.664987834504204 2.5418830552348846 9.694112197224632 C 2.958641739639981 10.366533727471076 3.421441835155182 11.037930782646944 3.9256731346074107 11.694263872754558 C 4.294065084108959 12.173833197880176 4.628992591191876 12.559893038248344 4.800601487147728 12.800017450196798 C 4.835380243014828 12.848659108394283 4.904290708128241 12.956218536976678 4.997384540693426 13.099404608829442 C 5.104713398915845 13.024042968179188 5.213053267483235 12.948001828757633 5.3223839261887 12.871270736737538 C 5.216692904725141 12.752400267069884 5.112336416916947 12.627372493151576 5.011296043040266 12.49583198485608 Z M 7.151422961487686 14.504555798731582 C 6.910580077108029 14.268874263364667 6.326519400816668 13.875287667376009 5.718598880383931 13.284730058329764 C 5.58441758739901 13.379953970756342 5.448921980965622 13.476557788380006 5.313102851221844 13.573841104774978 C 5.705678168175165 14.14590589341474 6.240381319424905 14.848476261452193 6.659121584106151 15.053319006429552 C 7.289890938335297 15.36230277847834 7.459841777325388 14.806681860103911 7.151422961487686 14.504555798731582 Z M 10.339401441879746 5.94419891647342 C 6.863527655652949 1.4204724349712738 2.617405528004429 -1.0647315980772665 0.7867084357396875 0.43940688206169776 C -0.6351758815499854 1.6075123121407042 -0.05143872856901835 5.021366408263837 1.9084648539019051 8.60754139278742 C 2.0098287510889787 8.571569773217776 2.1102018581379762 8.536288106246685 2.2096043952557993 8.501351415574865 C 0.23148240636844694 5.007326918266154 -0.30985297274431944 1.7602845435823573 1.0312111775681492 0.6582995708639952 C 2.7164643216049575 -0.7262941677496487 6.78567985908997 1.7685012518014034 10.160836794750473 6.161032201307329 C 10.859525823954955 7.070170195818498 11.473736092496361 7.982726591840644 11.993860474571587 8.872326383220267 C 13.985550854169947 12.280713127691286 14.596787488534208 15.362982277249632 13.220620427162773 16.621173563661497 C 12.799554838688097 17.006208928959083 11.512821752433053 17.15726673273162 9.827223601116017 16.372832443494 C 9.80370750049193 16.40331580375702 9.841478846980154 16.485869677555755 9.870959908639588 16.506076925631344 C 11.325985776918964 17.111019000974554 12.719705241642068 17.34155725333412 13.42336844174382 16.763680136742973 C 15.114263023505593 15.374293318334889 13.815276491869463 10.467935851802809 10.339401441879746 5.94419891647342 Z" stroke="none" stroke-linejoin="miter" stroke-linecap="butt" fill-rule="nonzero" stroke-width="0.9999999801320885"/></g><g id="kmt5okjghm" transform="translate(3.8167660963746872 11.13976035266272)" class=""><path d="M 0 0 L 2.226245095573019 0 L 4.094713534325979 3.278215687545367 C 4.094713534325979 3.278215687545367 4.094713534325979 0.9043292339758511 4.094713534325979 0.7193592146020579 C 4.094713534325979 0.4316176195266852 3.7418911441370257 0.05651339011725587 3.6176581929466476 0 C 3.7667417784164816 0 5.06870068046683 0 5.158154875790109 0 C 5.063726509569557 0.02569550738220771 4.760605387939517 0.4059221121444774 4.760605387939517 0.7193592146020579 C 4.760605387939517 0.8735008974135526 4.760605387939517 4.316144833785098 4.760605387939517 4.480562628784025 C 4.760605387939517 4.711790833742141 5.083602972951742 5.030360765379814 5.23766072931885 5.153674111629012 L 3.090901583008402 5.153674111629012 L 1.192628559285614 1.8600494827161183 C 1.192628559285614 1.8600494827161183 1.192628559285614 4.316144833785098 1.192628559285614 4.449734292221726 C 1.192628559285614 4.706647550734801 1.436120290769102 4.953284697060443 1.6895603640471317 5.163960677643694 L 0.04968136429274484 5.163960677643694 C 0.2832449741885899 5.061189101942114 0.5068602422898926 4.737475887297101 0.5267367056720773 4.480562628784025 C 0.546613169054262 4.223649370270952 0.5267367056720773 0.9094725169831931 0.5267367056720773 0.7655964925318811 C 0.5267367056720773 0.4521698439015509 0.23354370562967833 0.1952565853884766 0 0 Z" stroke="none" stroke-linejoin="miter" stroke-linecap="butt" fill-rule="nonzero" stroke-width="0.9999999801320885"/></g><g id="kmt5okjhhn" transform="translate(21.273983771893825 11.13976035266272)" class=""><path d="M 2.907038925730736 5.153674111629012 L 5.868753290917654 5.153674111629012 C 5.704767412962903 5.112569662879277 5.520925291832871 4.912180248310709 5.421522754715047 4.644990877610205 C 5.322120217597225 4.3778015069096945 3.751818949783934 0 3.751818949783934 0 L 2.6257758477590274 0 C 2.3064178999887064 0.2377304855080494 1.964190898215079 0.4884759859432139 1.598791539334651 0.7525814776047665 C 1.597800749196577 0.7621780910209043 1.5968099590585036 0.7717642506097914 1.5951519020927458 0.7810158877266558 C 1.5461179003615169 1.089309707176895 0.6648808432685631 4.38944707046697 0.6112164141573543 4.552495414096056 C 0.5366847315258867 4.778590789874084 0.1540375361602066 5.030360765379814 0 5.163960677643694 L 1.5951519020927458 5.163960677643694 C 1.4361199748283686 4.97898020444265 1.3069330729476176 4.7991430142489495 1.3367376579174453 4.593610316673037 C 1.3665624630941722 4.388077619097131 1.4559964382105535 3.9770122239453083 1.4559964382105535 3.9770122239453083 L 3.105823779759482 3.9770122239453083 C 3.180355462390951 4.182544921521221 3.236021691985207 4.367180418422991 3.2648354868169576 4.542229755735875 C 3.2996142426840573 4.752895282491873 3.090901267067669 4.989256316630084 2.907038925730736 5.153674111629012 Z M 1.6050800236803888 3.3193201362950995 L 2.1616412185884606 1.4387184292041157 L 2.897110804143093 3.3193201362950995 L 1.6050800236803888 3.3193201362950995 Z M 1.3542887975061904 0.18771937594072566 C 1.4361199748283686 0.12537275021758224 1.5182948956678393 0.06268114819516575 1.6001058527831182 0 L 1.1677776090654253 0 C 1.2108466497613093 0.04110444874973179 1.2820824386681622 0.10584500091328439 1.3542887975061904 0.18771937594072566 Z" stroke="none" stroke-linejoin="miter" stroke-linecap="butt" fill-rule="nonzero" stroke-width="0.9999999801320885"/></g><g id="kmt5okjiho" transform="translate(9.963809778909097 11.13976035266272)" class=""><path d="M 1.3367376579174457 4.593610316673037 C 1.3665624630941726 4.388077619097131 1.4560166584174536 3.9770122239453083 1.4560166584174536 3.9770122239453083 L 3.105823779759483 3.9770122239453083 C 3.180355462390951 4.182544921521221 3.2360216919852074 4.367180418422991 3.264835486816959 4.542229755735875 C 3.299634462890957 4.752895282491873 3.0909214872745685 4.989256316630084 2.9070389257307374 5.153674111629012 L 5.514616587280239 5.153674111629012 C 5.568948283219127 5.1159985182175065 5.622956455847628 5.078322924806004 5.676944408269228 5.040981853866522 C 5.575904034392549 4.948486390352373 5.48281020182736 4.809753648908403 5.421522754715048 4.644990877610205 C 5.322140437804126 4.3778015069096945 3.7518391699908338 0 3.7518391699908338 0 L 1.1677776090654255 0 C 1.2920105602558054 0.1181805170691042 1.6498071213420293 0.4367504487067763 1.595151902092746 0.7810158877266558 C 1.546441423671909 1.089309707176895 0.6649010634754627 4.38944707046697 0.6112164141573545 4.552495414096056 C 0.5366847315258866 4.778590789874084 0.15403753616020663 5.030360765379814 0 5.163960677643694 L 1.595151902092746 5.163960677643694 C 1.4361401950352684 4.97898020444265 1.306933072947618 4.7991430142489495 1.3367376579174457 4.593610316673037 Z M 2.1616412185884606 1.4387184292041157 L 2.8971108041430935 3.3193201362950995 L 1.605080023680389 3.3193201362950995 L 2.1616412185884606 1.4387184292041157 Z" stroke="none" stroke-linejoin="miter" stroke-linecap="butt" fill-rule="nonzero" stroke-width="0.9999999801320885"/></g><g id="kmt5okjihp" transform="translate(16.492555597680354 11.067482591051414)" class=""><path d="M 3.815387569384099 2.6304442819560676 C 3.3290511530379066 2.9654580838590827 2.8158812583731794 3.3152013283583255 2.2752333662949944 3.6803639680523417 C 2.5177343076404064 3.8019733404596754 2.7108777239441992 3.9547455719013294 2.7294196536710196 4.1520615612581935 C 2.7638748862277267 4.522702006431573 2.043651336675298 4.70184924402673 1.3926819957535745 4.624773175707361 C 1.2624840835278508 4.609364234339834 1.1346114950955655 4.574082567368738 1.0126836474917267 4.5268103605410985 C 0.8775317845756302 4.6169014437875875 0.7410251677972691 4.70767202580537 0.6025571909496584 4.7994775367209686 C 0.4617638903086084 4.892997475305684 0.2908222611804398 5.008094113335834 0.0956770443935989 5.141004073001164 L 0.0956770443935989 5.672988887961773 C 0.22488416648124937 5.410932346441353 0.5074817781083233 5.17628573997226 0.7267901421400386 5.164295200115715 C 0.8211982881536908 5.159162370935625 1.1491700440631885 5.4725890195659534 2.500830214672444 5.395512951246583 C 3.156773726491441 5.358182334134349 4.423955136437625 4.635059741722042 4.404078673055441 3.802652839230971 C 4.3921487509847505 3.3107479979495293 4.143682848603989 2.9270925378490333 3.815387569384099 2.6304442819560676 Z M 0.09535352108320727 3.915700527119985 L 0.09535352108320727 4.45761647796875 C 0.2149560448936065 4.375062604170015 0.3328802915313495 4.293878181741117 0.44849943458255237 4.21474270945336 C 0.26661867352176727 4.083892153756413 0.13775529495140798 3.9616032825777845 0.09535352108320727 3.915700527119985 Z M 3.35323452048968 2.2902976508729607 C 3.2273422485706114 2.213221582553588 3.099793183448717 2.145731673823104 2.9775620327413868 2.086134404666893 C 2.3414747640976756 1.777840585216654 1.6756031306910395 1.7213167412721475 1.5364476668088471 1.3051185169402368 C 1.4383998835532892 1.011554140086227 1.7153560574554088 0.7399114389769238 2.391176032656587 0.750187551164357 C 3.066996007857767 0.7604636633517897 3.6931361984698685 1.1766618876836994 3.862096247321889 1.3256707413151028 L 3.862096247321889 0 C 3.812394978762976 0.05138056093716469 3.5944211483866275 0.3100082471193528 3.3949892477370964 0.26718937070050724 C 3.0123407886084856 0.18497001937379298 2.36137144768676 0.07775556709066757 1.6159737405444852 0.08220889749946352 C 0.7612453746967452 0.08735218050680534 0.02577578914211118 0.7703947992399501 0.0009453750695548845 1.6339645607653415 C -0.03385360100444294 2.8414547850113405 0.9003806183720382 3.1703112826636963 1.4271372283102814 3.360424585044831 C 1.4814689242491725 3.3799523343491287 1.5434034179822667 3.400839081196018 1.610655826129923 3.423105733239997 C 2.1158779157202248 3.083293624628913 2.515408983846966 2.8215925132350206 2.7492961170532038 2.6821698191925054 C 2.9063262438345325 2.588660334435041 3.1120668490366983 2.4543704695726163 3.35323452048968 2.2902976508729607 Z" stroke="none" stroke-linejoin="miter" stroke-linecap="butt" fill-rule="nonzero" stroke-width="0.9999999801320885"/></g></g></g></svg></svg>